<svg width="18" height="17" viewBox="0 0 18 17" fill="none" xmlns="http://www.w3.org/2000/svg">
<path d="M7.296 1.2838C7.38845 1.1869 7.49942 1.10957 7.62232 1.05638C7.74523 1.00319 7.87757 0.975227 8.01148 0.974153C8.1454 0.97308 8.27817 0.998916 8.40191 1.05013C8.52565 1.10134 8.63785 1.17689 8.73184 1.27229C8.82583 1.36768 8.8997 1.48099 8.94907 1.60548C8.99844 1.72997 9.0223 1.8631 9.01924 1.99699C9.01617 2.13088 8.98625 2.26278 8.93124 2.38489C8.87623 2.50699 8.79725 2.6168 8.699 2.7078L3.33 7.9998H17C17.2652 7.9998 17.5196 8.10515 17.7071 8.29269C17.8946 8.48023 18 8.73458 18 8.9998C18 9.26501 17.8946 9.51937 17.7071 9.7069C17.5196 9.89444 17.2652 9.9998 17 9.9998H3.335L8.7 15.2848C8.87939 15.4728 8.97855 15.7233 8.97647 15.9831C8.97439 16.243 8.87123 16.4918 8.68884 16.677C8.50646 16.8621 8.25917 16.9689 7.99937 16.9749C7.73957 16.9808 7.48766 16.8854 7.297 16.7088L0.372 9.8868C0.254084 9.77051 0.16045 9.63194 0.0965424 9.47916C0.0326347 9.32637 -0.000276566 9.16241 -0.000276566 8.9968C-0.000276566 8.83118 0.0326347 8.66722 0.0965424 8.51443C0.16045 8.36165 0.254084 8.22309 0.372 8.1068L7.297 1.2838H7.296Z" fill="#080923"/>
</svg>
