<svg width="22" height="21" viewBox="0 0 22 21" fill="none" xmlns="http://www.w3.org/2000/svg">
<path d="M0.133929 19.4692C-0.14217 19.9475 0.0217617 20.559 0.50008 20.8351C0.978398 21.1112 1.58997 20.9473 1.86607 20.469L0.133929 19.4692ZM20.1339 20.469C20.41 20.9473 21.0216 21.1112 21.4999 20.8351C21.9782 20.559 22.1422 19.9475 21.8661 19.4692L20.1339 20.469ZM16.5979 7.59794C16.5979 10.6896 14.0917 13.1959 11 13.1959V15.1959C15.1962 15.1959 18.5979 11.7942 18.5979 7.59794H16.5979ZM11 13.1959C7.90834 13.1959 5.40206 10.6896 5.40206 7.59794H3.40206C3.40206 11.7942 6.80377 15.1959 11 15.1959V13.1959ZM5.40206 7.59794C5.40206 4.50628 7.90834 2 11 2V0C6.80377 0 3.40206 3.40171 3.40206 7.59794H5.40206ZM11 2C14.0917 2 16.5979 4.50628 16.5979 7.59794H18.5979C18.5979 3.40171 15.1962 0 11 0V2ZM1.86607 20.469C2.79165 18.8655 4.12303 17.5339 5.72638 16.6081L4.7263 14.8761C2.81889 15.9775 1.23503 17.5616 0.133929 19.4692L1.86607 20.469ZM5.72638 16.6081C7.32974 15.6824 9.14856 15.195 11 15.195V13.195C8.79745 13.195 6.63372 13.7748 4.7263 14.8761L5.72638 16.6081ZM11 15.195C12.8514 15.195 14.6703 15.6824 16.2736 16.6081L17.2737 14.8761C15.3663 13.7748 13.2025 13.195 11 13.195V15.195ZM16.2736 16.6081C17.877 17.5339 19.2084 18.8655 20.1339 20.469L21.8661 19.4692C20.765 17.5616 19.1811 15.9775 17.2737 14.8761L16.2736 16.6081Z" fill="#5E5E5E"/>
</svg>
